<svg width="19" height="18" viewBox="0 0 19 18" fill="none" xmlns="http://www.w3.org/2000/svg">
<path d="M8.80025 2.85302C9.02525 2.16227 10.0025 2.16227 10.2267 2.85302L11.366 6.35852C11.415 6.50888 11.5103 6.6399 11.6383 6.73285C11.7662 6.82579 11.9203 6.8759 12.0785 6.87602H15.7647C16.4914 6.87602 16.793 7.80602 16.2057 8.23352L13.2238 10.3995C13.0957 10.4926 13.0003 10.6239 12.9514 10.7745C12.9025 10.9252 12.9025 11.0874 12.9515 11.238L14.0899 14.7435C14.3149 15.435 13.5238 16.0095 12.9365 15.582L9.9545 13.416C9.82633 13.3228 9.67195 13.2727 9.5135 13.2727C9.35505 13.2727 9.20067 13.3228 9.0725 13.416L6.0905 15.582C5.50325 16.0095 4.712 15.4343 4.937 14.7435L6.0755 11.238C6.12446 11.0874 6.12449 10.9252 6.07558 10.7745C6.02667 10.6239 5.93134 10.4926 5.80325 10.3995L2.82125 8.23352C2.23325 7.80602 2.53625 6.87602 3.26225 6.87602H6.94775C7.10604 6.87606 7.26028 6.82602 7.38839 6.73307C7.51651 6.64011 7.61193 6.50901 7.661 6.35852L8.80025 2.85302Z" stroke="#C2CFE0" stroke-width="2" stroke-linecap="round" stroke-linejoin="round"/>
</svg>
