<svg width="24" height="19" viewBox="0 0 24 19" fill="none" xmlns="http://www.w3.org/2000/svg">
<g clip-path="url(#clip0_166_5539)">
<path d="M20.317 1.64878C18.7873 0.949818 17.147 0.434852 15.4319 0.139909C15.4007 0.134217 15.3695 0.148442 15.3534 0.176894C15.1424 0.550549 14.9087 1.03801 14.7451 1.42116C12.9004 1.14614 11.0652 1.14614 9.25832 1.42116C9.09465 1.0295 8.85248 0.550549 8.64057 0.176894C8.62449 0.149391 8.59328 0.135166 8.56205 0.139909C6.84791 0.433909 5.20756 0.948876 3.67693 1.64878C3.66368 1.65447 3.65233 1.66396 3.64479 1.67629C0.533392 6.30533 -0.31895 10.8206 0.0991801 15.2799C0.101072 15.3017 0.11337 15.3226 0.130398 15.3358C2.18321 16.8371 4.17171 17.7485 6.12328 18.3526C6.15451 18.3621 6.18761 18.3507 6.20748 18.3251C6.66913 17.6973 7.08064 17.0353 7.43348 16.3392C7.4543 16.2984 7.43442 16.2501 7.39186 16.2339C6.73913 15.9874 6.1176 15.6867 5.51973 15.3453C5.47244 15.3178 5.46865 15.2505 5.51216 15.2182C5.63797 15.1243 5.76382 15.0266 5.88396 14.928C5.90569 14.91 5.93598 14.9062 5.96153 14.9176C9.88928 16.7034 14.1415 16.7034 18.023 14.9176C18.0485 14.9052 18.0788 14.9091 18.1015 14.9271C18.2216 15.0257 18.3475 15.1243 18.4742 15.2182C18.5177 15.2505 18.5149 15.3178 18.4676 15.3453C17.8697 15.6934 17.2482 15.9874 16.5945 16.233C16.552 16.2491 16.533 16.2984 16.5538 16.3392C16.9143 17.0344 17.3258 17.6963 17.7789 18.3242C17.7978 18.3507 17.8319 18.3621 17.8631 18.3526C19.8241 17.7485 21.8126 16.8371 23.8654 15.3358C23.8834 15.3226 23.8948 15.3026 23.8967 15.2808C24.3971 10.1254 23.0585 5.64716 20.3482 1.67723C20.3416 1.66396 20.3303 1.65447 20.317 1.64878ZM8.02002 12.5646C6.8375 12.5646 5.86313 11.4835 5.86313 10.1558C5.86313 8.82802 6.8186 7.74688 8.02002 7.74688C9.23087 7.74688 10.1958 8.83751 10.1769 10.1558C10.1769 11.4835 9.22141 12.5646 8.02002 12.5646ZM15.9947 12.5646C14.8123 12.5646 13.8379 11.4835 13.8379 10.1558C13.8379 8.82802 14.7933 7.74688 15.9947 7.74688C17.2056 7.74688 18.1705 8.83751 18.1516 10.1558C18.1516 11.4835 17.2056 12.5646 15.9947 12.5646Z" fill="#5865F2"/>
</g>
<defs>
<clipPath id="clip0_166_5539">
<rect width="24" height="18.5143" fill="white"/>
</clipPath>
</defs>
</svg>
