<svg width="21" height="18" viewBox="0 0 21 18" fill="none" xmlns="http://www.w3.org/2000/svg">
<g clip-path="url(#clip0_253_6637)">
<path d="M3.47187 3.40938C3.08882 3.79242 2.78497 4.24716 2.57767 4.74763C2.37037 5.2481 2.26367 5.7845 2.26367 6.32621C2.26367 6.86792 2.37037 7.40432 2.57767 7.90479C2.78497 8.40526 3.08882 8.86 3.47187 9.24304L10.5137 16.2849L17.5555 9.24304C18.3291 8.46945 18.7637 7.42023 18.7637 6.32621C18.7637 5.23218 18.3291 4.18297 17.5555 3.40938C16.7819 2.63578 15.7327 2.20118 14.6387 2.20118C13.5447 2.20118 12.4955 2.63578 11.7219 3.40938L10.5137 4.61754L9.30554 3.40938C8.9225 3.02633 8.46776 2.72248 7.96729 2.51517C7.46681 2.30787 6.93041 2.20117 6.38871 2.20117C5.847 2.20117 5.3106 2.30787 4.81012 2.51517C4.30965 2.72248 3.85491 3.02633 3.47187 3.40938Z" stroke="#C2CFE0" stroke-width="2" stroke-linecap="round" stroke-linejoin="round"/>
</g>
<defs>
<clipPath id="clip0_253_6637">
<rect width="20" height="17" fill="white" transform="translate(0.513672 0.618164)"/>
</clipPath>
</defs>
</svg>
