<svg width="24" height="24" viewBox="0 0 24 24" fill="none" xmlns="http://www.w3.org/2000/svg">
<path d="M23.9279 7.0525C23.8694 5.77514 23.6665 4.90283 23.3699 4.13965C23.0687 3.33893 22.5964 2.61365 21.9858 2.01416C21.3865 1.40369 20.6611 0.931091 19.8604 0.6297C19.097 0.333252 18.2249 0.130554 16.9475 0.0725098C15.6678 0.013916 15.259 0 12 0C8.74109 0 8.33221 0.013916 7.0525 0.0721435C5.77514 0.130554 4.90302 0.333436 4.13965 0.630066C3.33893 0.931274 2.61365 1.40369 2.01416 2.01416C1.40369 2.61347 0.931091 3.33875 0.6297 4.13946C0.333252 4.90283 0.130554 5.77514 0.0725098 7.0523C0.013916 8.33221 0 8.74091 0 11.9998C0 15.259 0.013916 15.6678 0.0725098 16.9475C0.130738 18.2246 0.333618 19.097 0.630248 19.8604C0.931458 20.6609 1.40387 21.3864 2.01434 21.9857C2.61365 22.5961 3.33911 23.0686 4.13983 23.3698C4.90302 23.6665 5.77532 23.8693 7.05268 23.9276C8.33258 23.9861 8.74127 23.9998 12.0002 23.9998C15.2591 23.9998 15.6679 23.9861 16.9477 23.9276C18.225 23.8693 19.0972 23.6665 19.8605 23.3698C21.4724 22.7465 22.7466 21.4722 23.3699 19.8604C23.6668 19.097 23.8694 18.2246 23.9279 16.9475C23.9861 15.6676 24 15.259 24 12C24 8.74091 23.9861 8.33221 23.9279 7.0525ZM21.7678 16.8492C21.7145 18.0192 21.5189 18.6546 21.3547 19.0774C20.9509 20.124 20.1239 20.9512 19.0772 21.3548C18.6544 21.5191 18.0191 21.7147 16.849 21.768C15.5839 21.8258 15.2044 21.8378 12 21.8378C8.79547 21.8378 8.41608 21.8258 7.15081 21.768C5.98096 21.7147 5.34558 21.5191 4.9226 21.3548C4.40149 21.1624 3.92999 20.8558 3.5429 20.4571C3.14429 20.07 2.83758 19.5986 2.64514 19.0774C2.48089 18.6546 2.28534 18.0192 2.23206 16.8492C2.17438 15.5839 2.16211 15.2044 2.16211 12.0002C2.16211 8.79583 2.17438 8.41644 2.23206 7.151C2.28552 5.98096 2.48089 5.34558 2.64514 4.9228C2.83758 4.40149 3.14447 3.92999 3.5429 3.5429C3.92999 3.14429 4.40149 2.83758 4.9228 2.64533C5.34558 2.48089 5.98096 2.28552 7.151 2.23206C8.41626 2.17438 8.79583 2.16211 12 2.16211H11.9998C15.204 2.16211 15.5836 2.17438 16.849 2.23224C18.0191 2.28552 18.6542 2.48108 19.0772 2.64533C19.5983 2.83777 20.0699 3.14447 20.4569 3.5429C20.8555 3.92999 21.1622 4.40149 21.3545 4.9228C21.5189 5.34558 21.7145 5.98096 21.7678 7.151C21.8255 8.41626 21.8377 8.79583 21.8377 12C21.8377 15.2044 21.8256 15.5838 21.7678 16.8492Z" fill="url(#paint0_linear_166_5509)"/>
<path d="M11.9999 5.83765C8.59674 5.83765 5.83789 8.59667 5.83789 11.9999C5.83789 15.403 8.59674 18.1619 11.9999 18.1619C15.4033 18.1619 18.1622 15.403 18.1622 11.9999C18.1622 8.59667 15.4033 5.83765 11.9999 5.83765ZM11.9999 15.9998C9.79095 15.9997 7.99999 14.2089 8.00018 11.9997C8.00018 9.79071 9.79095 7.99975 12.0001 7.99975C14.2093 7.99994 16 9.79071 16 11.9997C16 14.2089 14.2092 15.9998 11.9999 15.9998Z" fill="url(#paint1_linear_166_5509)"/>
<path d="M19.845 5.59443C19.845 6.38966 19.2002 7.03437 18.405 7.03437C17.6096 7.03437 16.9648 6.38966 16.9648 5.59443C16.9648 4.79902 17.6096 4.1543 18.405 4.1543C19.2002 4.1543 19.845 4.79902 19.845 5.59443Z" fill="url(#paint2_linear_166_5509)"/>
<defs>
<linearGradient id="paint0_linear_166_5509" x1="2.01404" y1="21.9858" x2="21.9859" y2="2.01384" gradientUnits="userSpaceOnUse">
<stop stop-color="#FFD600"/>
<stop offset="0.5" stop-color="#FF0100"/>
<stop offset="1" stop-color="#D800B9"/>
</linearGradient>
<linearGradient id="paint1_linear_166_5509" x1="7.64276" y1="16.357" x2="16.3574" y2="7.64251" gradientUnits="userSpaceOnUse">
<stop stop-color="#FF6400"/>
<stop offset="0.5" stop-color="#FF0100"/>
<stop offset="1" stop-color="#FD0056"/>
</linearGradient>
<linearGradient id="paint2_linear_166_5509" x1="17.3866" y1="6.61256" x2="19.4232" y2="4.57613" gradientUnits="userSpaceOnUse">
<stop stop-color="#F30072"/>
<stop offset="1" stop-color="#E50097"/>
</linearGradient>
</defs>
</svg>
