<svg width="24" height="23" viewBox="0 0 24 23" fill="none" xmlns="http://www.w3.org/2000/svg">
<g clip-path="url(#clip0_166_5542)">
<path fill-rule="evenodd" clip-rule="evenodd" d="M5.69531 14.9882L20.0821 0.838623C21.552 1.62095 22.6139 2.73493 23.2318 4.00414L8.87755 18.1222L5.69531 14.9882Z" fill="#FF8434" stroke="#FF8434" stroke-width="0.5669"/>
<path fill-rule="evenodd" clip-rule="evenodd" d="M8.87793 18.1222L23.2321 4.00415C24.4252 6.45604 23.963 9.48655 21.5873 11.8246L12.019 21.2111L8.87793 18.1222Z" fill="#FFCB3A" stroke="#FFCB3A" stroke-width="0.5669"/>
<path fill-rule="evenodd" clip-rule="evenodd" d="M2.4873 11.8297L12.5004 1.98121C14.7135 0.0929073 17.1999 -0.34083 19.9798 0.783969C20.0032 0.7962 20.0257 0.808902 20.0486 0.820662L5.66955 14.9628L2.4873 11.8297Z" fill="#FF474C" stroke="#FF474C" stroke-width="0.5669"/>
<path fill-rule="evenodd" clip-rule="evenodd" d="M2.35724 11.7172L1.76317 11.133C0.0546274 9.20561 -0.390207 6.28049 0.762535 3.88599L5.63084 8.67357L2.45339 11.7991C2.42085 11.7718 2.38929 11.7445 2.35724 11.7172Z" fill="#9330FD" stroke="#9330FD" stroke-width="0.5669"/>
<path fill-rule="evenodd" clip-rule="evenodd" d="M5.61597 8.68859L0.75293 3.90619C1.35322 2.64826 2.39164 1.53522 3.91843 0.78724L3.94091 0.777832L8.80013 5.55693L5.61597 8.68859Z" fill="#C43FF8" stroke="#C43FF8" stroke-width="0.5669"/>
<path fill-rule="evenodd" clip-rule="evenodd" d="M8.79965 5.55697L3.94043 0.777871C6.86916 -0.481001 9.44011 0.107507 11.758 2.20327L11.9838 2.42579L8.79965 5.55697Z" fill="#DD48E2" stroke="#DD48E2" stroke-width="0.5669"/>
<path fill-rule="evenodd" clip-rule="evenodd" d="M7.08499 21.1509C6.74921 21.1509 6.47656 21.419 6.47656 21.7492C6.47656 22.079 6.74921 22.3471 7.08499 22.3471C7.42077 22.3471 7.69292 22.079 7.69292 21.7492C7.69292 21.419 7.42077 21.1509 7.08499 21.1509Z" fill="white" stroke="white" stroke-width="0.216"/>
</g>
<defs>
<clipPath id="clip0_166_5542">
<rect width="24" height="22.4" fill="white"/>
</clipPath>
</defs>
</svg>
