<svg width="24" height="36" viewBox="0 0 24 36" fill="none" xmlns="http://www.w3.org/2000/svg">
<path d="M20.0738 23.4674C18.1511 24.6884 15.5058 25.1724 13.7586 25.355L15.225 26.8004L20.5788 32.1542C22.5366 34.161 19.3508 37.2976 17.3722 35.361C16.0321 33.9996 14.0671 32.035 12.0183 29.986L6.6645 35.354C4.68574 37.2836 1.50012 34.1188 3.47886 32.1472C4.84012 30.7858 6.78378 28.8212 8.8327 26.7934L10.2782 25.3478C8.55208 25.1654 5.86464 24.7092 3.9209 23.4606C1.6334 21.9868 0.63004 21.1238 1.5141 19.3205C2.03332 18.296 3.4577 17.433 5.34528 18.9205C5.34528 18.9205 7.89238 20.9484 12.0043 20.9484C16.1161 20.9484 18.6632 18.9205 18.6632 18.9205C20.5506 17.4399 21.968 18.296 22.4944 19.3205C23.3648 21.1238 22.3612 21.9868 20.0738 23.4674ZM2.89652 9.13204C2.89652 4.10102 6.9873 0.03125 11.9974 0.03125C17.0075 0.03125 21.0982 4.10102 21.0982 9.13204C21.0982 14.1421 17.0075 18.2118 11.9974 18.2118C6.9873 18.2118 2.89652 14.1421 2.89652 9.13204ZM7.5277 9.13204C7.5277 11.5949 9.5345 13.6017 11.9974 13.6017C14.4601 13.6017 16.4671 11.5949 16.4671 9.13204C16.4671 6.64804 14.4602 4.64132 11.9974 4.64132C9.53442 4.64132 7.5277 6.64804 7.5277 9.13204Z" fill="#FF7E00"/>
</svg>
