<svg width="24" height="24" viewBox="0 0 24 24" fill="none" xmlns="http://www.w3.org/2000/svg">
<path d="M18.9082 0H5.0917C2.27963 0 0 2.27963 0 5.0917V18.9082C0 21.7203 2.27963 23.9999 5.0917 23.9999H18.9082C21.7203 23.9999 23.9999 21.7203 23.9999 18.9082V5.0917C23.9999 2.27963 21.7203 0 18.9082 0Z" fill="#0B1D38"/>
<path d="M19.6648 6.67253C20.5022 6.67253 21.1811 5.99365 21.1811 5.15621C21.1811 4.31877 20.5022 3.63989 19.6648 3.63989C18.8273 3.63989 18.1484 4.31877 18.1484 5.15621C18.1484 5.99365 18.8273 6.67253 19.6648 6.67253Z" fill="#F41240"/>
<path d="M15.1596 6.50488H4.50293V18.3515H7.46902V14.4974H13.1526L15.7457 18.3515H19.067L16.2075 14.4796C17.0955 14.3375 17.7349 14.0001 18.1257 13.4672C18.5164 12.9344 18.7118 12.0818 18.7118 10.9452V10.0571C18.7118 9.38216 18.6407 8.84934 18.5164 8.44082C18.3921 8.03235 18.1789 7.67709 17.877 7.3574C17.5573 7.05548 17.2021 6.84234 16.7758 6.70026C16.3495 6.5759 15.8167 6.50488 15.1596 6.50488ZM14.68 11.8865H7.46902V9.11577H14.68C15.0885 9.11577 15.3727 9.18679 15.5148 9.31115C15.6569 9.43546 15.7457 9.66637 15.7457 10.0038V10.9984C15.7457 11.3536 15.6569 11.5845 15.5148 11.7089C15.3727 11.8332 15.0885 11.8865 14.68 11.8865Z" fill="white"/>
</svg>
