<svg width="30" height="29" viewBox="0 0 30 29" fill="none" xmlns="http://www.w3.org/2000/svg">
<path d="M13.3662 1.67946C14.1631 0.550951 15.8369 0.55095 16.6338 1.67946L20.5891 7.281C20.852 7.65342 21.2344 7.92482 21.6727 8.05023L28.2935 9.94454C29.663 10.3364 30.1956 11.9936 29.3107 13.1098L25.1533 18.3541C24.861 18.7228 24.7081 19.1828 24.7214 19.6532L24.9104 26.3238C24.95 27.7213 23.5803 28.7271 22.2587 28.271L15.6525 25.9909C15.2297 25.845 14.7703 25.845 14.3475 25.9909L7.74127 28.271C6.41975 28.7271 5.04996 27.7213 5.08956 26.3238L5.27859 19.6532C5.29192 19.1828 5.13898 18.7228 4.84667 18.3541L0.689324 13.1098C-0.195567 11.9936 0.336956 10.3364 1.70645 9.94454L8.32731 8.05023C8.76563 7.92482 9.14795 7.65342 9.41092 7.281L13.3662 1.67946Z" fill="#F6AE3D"/>
</svg>
