<svg width="16" height="20" viewBox="0 0 16 20" fill="none" xmlns="http://www.w3.org/2000/svg">
<path d="M11.6664 5.41667C11.6664 6.38913 11.2801 7.32176 10.5924 8.00939C9.90477 8.69703 8.97214 9.08333 7.99968 9.08333C7.02722 9.08333 6.09459 8.69703 5.40696 8.00939C4.71932 7.32176 4.33301 6.38913 4.33301 5.41667C4.33301 4.44421 4.71932 3.51158 5.40696 2.82394C6.09459 2.13631 7.02722 1.75 7.99968 1.75C8.97214 1.75 9.90477 2.13631 10.5924 2.82394C11.2801 3.51158 11.6664 4.44421 11.6664 5.41667ZM7.99968 11.8333C6.29788 11.8333 4.66577 12.5094 3.46241 13.7127C2.25905 14.9161 1.58301 16.5482 1.58301 18.25H14.4164C14.4164 16.5482 13.7403 14.9161 12.537 13.7127C11.3336 12.5094 9.70149 11.8333 7.99968 11.8333Z" stroke="#C2CFE0" stroke-width="2" stroke-linecap="round" stroke-linejoin="round"/>
</svg>
