<svg width="24" height="26" viewBox="0 0 24 26" fill="none" xmlns="http://www.w3.org/2000/svg">
<g clip-path="url(#clip0_166_5513)">
<path d="M7.96493 13.4022C5.84165 13.4022 4.12628 15.0648 4.15765 17.1025C4.17857 18.4102 4.9212 19.5456 6.01422 20.1792C5.64292 19.6267 5.42326 18.9728 5.4128 18.2683C5.38142 16.2305 7.0968 14.568 9.22009 14.568C9.63846 14.568 10.0412 14.6339 10.4177 14.7505V10.67C10.0255 10.6143 9.62278 10.5839 9.22009 10.5839C9.19917 10.5839 9.18348 10.5839 9.16256 10.5839V13.5847C8.78601 13.4681 8.38332 13.4022 7.96493 13.4022Z" fill="#F00044"/>
<path d="M17.1435 1.16614H17.1121H16.0244C16.3381 2.69187 17.222 4.01991 18.4563 4.92217C17.6456 3.88305 17.154 2.58542 17.1435 1.16614Z" fill="#F00044"/>
<path d="M23.5439 7.37569C23.1307 7.37569 22.7333 7.33513 22.341 7.26416V10.1889C20.9185 10.1889 19.5378 9.92025 18.2409 9.38295C17.4041 9.03827 16.6249 8.59728 15.9083 8.06504L15.9293 17.0826C15.9189 19.1101 15.0926 21.011 13.5969 22.4454C12.3783 23.6112 10.8355 24.3564 9.16197 24.5947C8.76975 24.6504 8.36705 24.6807 7.96436 24.6807C6.17577 24.6807 4.47085 24.1182 3.08496 23.079C3.24185 23.2615 3.40921 23.439 3.59225 23.6112C5.09843 25.0508 7.09621 25.8467 9.22473 25.8467C9.62743 25.8467 10.0301 25.8163 10.4223 25.7605C12.0959 25.5223 13.6386 24.7771 14.8571 23.6112C16.3529 22.1768 17.1793 20.2759 17.1897 18.2484L17.1113 9.23088C17.8225 9.76312 18.6017 10.2092 19.4437 10.5488C20.7459 11.081 22.1266 11.3547 23.5439 11.3547" fill="#F00044"/>
<path d="M3.5772 12.8292C5.06768 11.3947 7.04977 10.5989 9.1626 10.5837V9.50402C8.77037 9.44825 8.36768 9.41785 7.96499 9.41785C5.83124 9.41785 3.82823 10.2137 2.32205 11.6633C0.842019 13.0877 -0.00520572 15.0342 2.40698e-05 17.0567C2.40698e-05 19.0943 0.83156 21.0053 2.33251 22.4499C2.57308 22.678 2.81888 22.8909 3.08037 23.0835C1.89844 21.72 1.25517 20.0168 1.24994 18.2225C1.25517 16.2 2.09717 14.2535 3.5772 12.8292Z" fill="#08FFF9"/>
<path d="M22.3415 7.26369V6.17895H22.3309C20.8771 6.17895 19.5383 5.71263 18.4609 4.92188C19.3971 6.11813 20.7673 6.9697 22.3415 7.26369Z" fill="#08FFF9"/>
<path d="M9.00609 21.8569C9.50292 21.8823 9.97882 21.8164 10.4181 21.6795C11.9348 21.198 13.0278 19.8294 13.0278 18.2175L13.033 12.1856V1.16584H16.0245C15.9461 0.785674 15.9042 0.400441 15.899 0H11.7779V11.0146L11.7726 17.0466C11.7726 18.6585 10.6796 20.0271 9.16298 20.5087C8.72368 20.6506 8.24777 20.7165 7.75094 20.6861C7.11813 20.6506 6.52717 20.4681 6.01465 20.1741C6.65792 21.1371 7.75617 21.791 9.00609 21.8569Z" fill="#08FFF9"/>
<path d="M9.16234 24.5945C10.8359 24.3562 12.3787 23.6111 13.5971 22.4452C15.0929 21.0108 15.9193 19.1099 15.9297 17.0824L15.9087 8.06487C16.6201 8.5971 17.3993 9.04316 18.2413 9.38277C19.5434 9.915 20.9241 10.1887 22.3414 10.1887V7.26399C20.7673 6.96999 19.397 6.11842 18.4609 4.92217C17.2266 4.01991 16.3375 2.69187 16.029 1.16614H13.0324V12.1808L13.0272 18.2128C13.0272 19.8247 11.9341 21.1932 10.4175 21.6747C9.97818 21.8166 9.50228 21.8826 9.00545 21.8522C7.7503 21.7863 6.65727 21.1324 6.01401 20.1744C4.92098 19.5458 4.17835 18.4053 4.15743 17.0977C4.12606 15.0599 5.84142 13.3973 7.96472 13.3973C8.3831 13.3973 8.7858 13.4632 9.16234 13.5797V10.579C7.0495 10.5942 5.06742 11.39 3.57693 12.8245C2.0969 14.2489 1.24968 16.1954 1.25491 18.2128C1.25491 20.0072 1.89817 21.7103 3.08533 23.0738C4.47645 24.1129 6.17613 24.6755 7.96472 24.6755C8.36741 24.6807 8.7701 24.6502 9.16234 24.5945Z" fill="black"/>
</g>
<defs>
<clipPath id="clip0_166_5513">
<rect width="24" height="25.8462" fill="white"/>
</clipPath>
</defs>
</svg>
