<svg width="24" height="23" viewBox="0 0 24 23" fill="none" xmlns="http://www.w3.org/2000/svg">
<path d="M7.54753 21.203C16.6042 21.203 21.5578 13.4616 21.5578 6.74806C21.5578 6.5282 21.5578 6.30932 21.5434 6.09139C22.5071 5.37218 23.3389 4.48177 24 3.4617C23.1013 3.87254 22.1479 4.14192 21.1718 4.26099C22.1995 3.62628 22.9692 2.62719 23.3366 1.451C22.3702 2.04272 21.3126 2.45981 20.2099 2.68416C19.2788 1.66268 17.9785 1.08276 16.6196 1.08276C13.9158 1.08276 11.691 3.37826 11.691 6.16785C11.691 6.55486 11.7338 6.94065 11.8185 7.31759C7.86145 7.11297 4.16948 5.18182 1.67039 2.00964C0.370827 4.31782 1.04325 7.30908 3.19486 8.7914C2.41134 8.76747 1.64466 8.54934 0.96 8.15553V8.2199C0.960656 10.6291 2.62158 12.7231 4.91039 13.2C4.18552 13.404 3.42478 13.4337 2.68706 13.2871C3.33052 15.3516 5.18602 16.7746 7.28737 16.8152C5.5441 18.2288 3.38939 18.9966 1.17216 18.9943C0.780376 18.9935 0.388969 18.9691 0 18.921C2.2516 20.4118 4.87219 21.2028 7.54753 21.1991" fill="#1DA1F2"/>
</svg>
