<svg width="22" height="22" viewBox="0 0 22 22" fill="none" xmlns="http://www.w3.org/2000/svg">
<path d="M13.75 11C13.75 11.7293 13.4603 12.4288 12.9445 12.9445C12.4288 13.4603 11.7293 13.75 11 13.75C10.2707 13.75 9.57118 13.4603 9.05546 12.9445C8.53973 12.4288 8.25 11.7293 8.25 11C8.25 10.2707 8.53973 9.57118 9.05546 9.05546C9.57118 8.53973 10.2707 8.25 11 8.25C11.7293 8.25 12.4288 8.53973 12.9445 9.05546C13.4603 9.57118 13.75 10.2707 13.75 11Z" stroke="#C9D5E4" stroke-width="2" stroke-linecap="round" stroke-linejoin="round"/>
<path d="M2.25293 11C3.42077 7.28112 6.89585 4.58337 10.9998 4.58337C15.1046 4.58337 18.5788 7.28112 19.7466 11C18.5788 14.7189 15.1046 17.4167 10.9998 17.4167C6.89585 17.4167 3.42077 14.7189 2.25293 11Z" stroke="#C9D5E4" stroke-width="2" stroke-linecap="round" stroke-linejoin="round"/>
</svg>
