<svg width="24" height="15" viewBox="0 0 24 15" fill="none" xmlns="http://www.w3.org/2000/svg">
<path d="M1.4997 0.408203C2.2872 0.408203 3.4872 0.408203 4.1622 0.408203C4.4997 0.408203 4.7622 0.630859 4.8747 0.927734C5.2122 1.89258 5.9622 4.00781 6.8247 5.45508C7.9872 7.34766 8.7372 8.05274 9.2247 7.97852C9.7122 7.86719 9.5622 6.60547 9.5622 5.60352C9.5622 4.60156 9.6747 2.89453 9.1872 2.11523L8.4372 1.03906C8.2497 0.779297 8.4372 0.445313 8.7372 0.445313H13.0122C13.4247 0.445313 13.7622 0.779297 13.7622 1.1875V6.56836C13.7622 6.56836 13.9497 7.5332 14.9997 6.53125C16.0497 5.5293 17.1747 3.67383 18.1122 1.78125L18.4872 0.890625C18.5997 0.630859 18.8622 0.445313 19.1622 0.445313H21.9372C22.4622 0.445313 22.8372 0.964844 22.6497 1.44727L22.3497 2.22656C22.3497 2.22656 21.3372 4.23047 20.2872 5.64063C19.2372 7.08789 19.0122 7.42188 19.1622 7.79297C19.3122 8.16406 22.0122 10.6504 22.6872 11.8379C22.8747 12.1719 23.0247 12.4688 23.1747 12.7286C23.4372 13.2109 23.0622 13.8417 22.4997 13.8417H19.3497C19.0872 13.8417 18.8247 13.6933 18.7122 13.4708L18.4122 12.9883C18.4122 12.9883 16.4997 10.7617 15.3372 10.0566C14.1372 9.38867 14.1747 10.3535 14.1747 10.3535V12.3203C14.1747 13.1367 13.4997 13.8047 12.6747 13.8047H11.9247C11.9247 13.8047 7.7997 13.8047 4.4997 8.94336C1.9122 5.1582 1.04969 2.70898 0.749691 1.29883C0.674691 0.853516 1.01219 0.408203 1.4997 0.408203Z" fill="#5181B8"/>
</svg>
