<svg width="24" height="24" viewBox="0 0 24 24" fill="none" xmlns="http://www.w3.org/2000/svg">
<path d="M22.5262 6.23877C22.261 5.21063 21.4842 4.40021 20.499 4.12335C18.6991 3.60937 11.4998 3.60938 11.4998 3.60938C11.4998 3.60938 4.30055 3.60937 2.5007 4.10376C1.53454 4.38043 0.738751 5.21081 0.473608 6.23877C0 8.11668 0 12.0113 0 12.0113C0 12.0113 0 15.9256 0.473608 17.7839C0.738926 18.8118 1.51558 19.6224 2.50087 19.8992C4.3195 20.4133 11.4999 20.4133 11.4999 20.4133C11.4999 20.4133 18.6991 20.4133 20.499 19.9189C21.4843 19.6422 22.261 18.8316 22.5263 17.8037C22.9999 15.9256 22.9999 12.0311 22.9999 12.0311C22.9999 12.0311 23.0189 8.11668 22.5262 6.23877Z" fill="#FF0000"/>
<path d="M9.20703 15.6095L15.1938 12.0115L9.20703 8.41345V15.6095Z" fill="white"/>
</svg>
